<svg xmlns="http://www.w3.org/2000/svg" viewBox="0 0 512 512" width="512" height="512">
  <!-- Arba Billing Pro Logo -->
  <rect width="512" height="512" rx="100" fill="#09090b"/>
  <!-- Glowing Hexagon Base -->
  <polygon points="256,66 416,160 416,352 256,446 96,352 96,160" fill="none" stroke="#2563eb" stroke-width="16"/>
  <polygon points="256,106 384,181 384,330 256,405 128,330 128,181" fill="none" stroke="#3b82f6" stroke-width="10"/>
  
  <!-- Central B/P Abstract Graphic -->
  <path d="M202 160 V346" stroke="#60a5fa" stroke-width="32" stroke-linecap="round"/>
  <path d="M202 173 H282 C320 173 320 240 282 240 H202" fill="none" stroke="#60a5fa" stroke-width="32" stroke-linecap="round"/>
  <path d="M202 253 H282 C320 253 320 320 282 320 H202" fill="none" stroke="#60a5fa" stroke-width="32" stroke-linecap="round"/>
  
  <!-- Connection Nodes -->
  <circle cx="256" cy="66" r="14" fill="#93c5fd"/>
  <circle cx="416" cy="160" r="14" fill="#93c5fd"/>
  <circle cx="416" cy="352" r="14" fill="#93c5fd"/>
  <circle cx="256" cy="446" r="14" fill="#93c5fd"/>
  <circle cx="96" cy="352" r="14" fill="#93c5fd"/>
  <circle cx="96" cy="160" r="14" fill="#93c5fd"/>
</svg>
