<svg xmlns="http://www.w3.org/2000/svg" viewBox="0 0 192 192" width="192" height="192">
  <!-- Arba Billing Pro Logo -->
  <rect width="192" height="192" rx="38" fill="#09090b"/>
  <!-- Glowing Hexagon Base -->
  <polygon points="96,25 156,60 156,132 96,167 36,132 36,60" fill="none" stroke="#2563eb" stroke-width="6"/>
  <polygon points="96,40 144,68 144,124 96,152 48,124 48,68" fill="none" stroke="#3b82f6" stroke-width="4"/>
  
  <!-- Central B/P Abstract Graphic -->
  <path d="M76 60 V130" stroke="#60a5fa" stroke-width="12" stroke-linecap="round"/>
  <path d="M76 65 H106 C120 65 120 90 106 90 H76" fill="none" stroke="#60a5fa" stroke-width="12" stroke-linecap="round"/>
  <path d="M76 95 H106 C120 95 120 120 106 120 H76" fill="none" stroke="#60a5fa" stroke-width="12" stroke-linecap="round"/>
  
  <!-- Connection Nodes -->
  <circle cx="96" cy="25" r="5" fill="#93c5fd"/>
  <circle cx="156" cy="60" r="5" fill="#93c5fd"/>
  <circle cx="156" cy="132" r="5" fill="#93c5fd"/>
  <circle cx="96" cy="167" r="5" fill="#93c5fd"/>
  <circle cx="36" cy="132" r="5" fill="#93c5fd"/>
  <circle cx="36" cy="60" r="5" fill="#93c5fd"/>
</svg>
